<svg width="64" height="50" viewBox="0 0 34 30" fill="none" xmlns="http://www.w3.org/2000/svg">
<path d="M4.07898 26C2.72857 26 1.71114 25.6578 1.02668 24.9733C0.342227 24.2889 0 23.2807 0 21.9488V7.36713C0 6.04447 0.342227 5.04091 1.02668 4.35646C1.71114 3.672 2.72857 3.32978 4.07898 3.32978H7.94984C8.49556 3.32978 8.8979 3.26965 9.15689 3.14941C9.42512 3.02917 9.7211 2.78869 10.0448 2.42796L11.1964 1.1238C11.5571 0.735326 11.9317 0.45322 12.3202 0.277481C12.7086 0.0924938 13.2497 0 13.9434 0H19.3543C20.0388 0 20.5752 0.0924938 20.9637 0.277481C21.3614 0.45322 21.736 0.735326 22.0875 1.1238L23.2391 2.42796C23.4703 2.67769 23.6738 2.86731 23.8495 2.9968C24.0253 3.12629 24.2241 3.21416 24.4461 3.26041C24.6681 3.30665 24.9687 3.32978 25.3479 3.32978H29.413C30.7634 3.32978 31.7809 3.672 32.4653 4.35646C33.1498 5.04091 33.492 6.04447 33.492 7.36713V21.9488C33.492 23.2807 33.1498 24.2889 32.4653 24.9733C31.7809 25.6578 30.7634 26 29.413 26H4.07898ZM4.1206 24.2935H29.3714C30.1391 24.2935 30.7357 24.09 31.1612 23.683C31.5866 23.2761 31.7994 22.6702 31.7994 21.8655V7.46425C31.7994 6.65955 31.5866 6.05372 31.1612 5.64675C30.7357 5.23977 30.1391 5.03629 29.3714 5.03629H24.9872C24.349 5.03629 23.8449 4.97154 23.4749 4.84205C23.105 4.71256 22.7396 4.44433 22.3789 4.03735L21.2412 2.77481C20.8435 2.33084 20.4966 2.04411 20.2006 1.91462C19.9047 1.77588 19.4699 1.70651 18.8965 1.70651H14.4013C13.8278 1.70651 13.3885 1.77588 13.0832 1.91462C12.7873 2.04411 12.445 2.33084 12.0566 2.77481L10.9189 4.03735C10.5582 4.44433 10.1882 4.71256 9.80897 4.84205C9.43899 4.97154 8.93953 5.03629 8.31057 5.03629H4.1206C3.3529 5.03629 2.75632 5.23977 2.33084 5.64675C1.91462 6.05372 1.70651 6.65955 1.70651 7.46425V21.8655C1.70651 22.6702 1.91462 23.2761 2.33084 23.683C2.75632 24.09 3.3529 24.2935 4.1206 24.2935ZM16.746 22.0598C15.6916 22.0598 14.7019 21.8655 13.777 21.4771C12.8613 21.0793 12.0519 20.5336 11.349 19.8399C10.6553 19.137 10.1096 18.3276 9.71185 17.412C9.32337 16.487 9.12914 15.4881 9.12914 14.4152C9.12914 13.3515 9.32337 12.3618 9.71185 11.4461C10.1096 10.5212 10.6553 9.71185 11.349 9.01814C12.0519 8.31519 12.8613 7.76948 13.777 7.381C14.7019 6.98328 15.6916 6.78442 16.746 6.78442C18.1612 6.78442 19.4422 7.12665 20.5891 7.8111C21.7453 8.4863 22.661 9.40199 23.3362 10.5582C24.0206 11.7143 24.3629 13 24.3629 14.4152C24.3629 15.4881 24.164 16.487 23.7663 17.412C23.3778 18.3276 22.8321 19.137 22.1291 19.8399C21.4354 20.5336 20.6261 21.0793 19.7012 21.4771C18.7855 21.8655 17.8004 22.0598 16.746 22.0598ZM16.746 20.4088C17.8467 20.4088 18.8502 20.1405 19.7567 19.6041C20.6631 19.0676 21.3846 18.3461 21.921 17.4397C22.4575 16.5333 22.7257 15.5251 22.7257 14.4152C22.7257 13.3145 22.4575 12.3109 21.921 11.4045C21.3846 10.498 20.6631 9.77659 19.7567 9.24013C18.8502 8.69441 17.8467 8.42156 16.746 8.42156C15.6453 8.42156 14.6418 8.69441 13.7353 9.24013C12.8289 9.77659 12.1074 10.498 11.571 11.4045C11.0345 12.3109 10.7663 13.3145 10.7663 14.4152C10.7663 15.5251 11.0345 16.5333 11.571 17.4397C12.1074 18.3461 12.8289 19.0676 13.7353 19.6041C14.6418 20.1405 15.6453 20.4088 16.746 20.4088ZM25.0427 9.33725C25.0427 8.90253 25.2092 8.51868 25.5422 8.1857C25.8751 7.84347 26.2729 7.67236 26.7353 7.67236C27.1793 7.67236 27.5678 7.84347 27.9008 8.1857C28.2337 8.51868 28.4002 8.90253 28.4002 9.33725C28.4002 9.79972 28.2337 10.1928 27.9008 10.5165C27.5678 10.8403 27.1793 11.0021 26.7353 11.0021C26.2729 11.0021 25.8751 10.8449 25.5422 10.5304C25.2092 10.2159 25.0427 9.81821 25.0427 9.33725Z" fill="#62A2DD"/>
</svg>
