<svg xmlns="http://www.w3.org/2000/svg">

  <symbol id="add-chat" fill="currentColor">
    <path
      d="M13.2383 30.459C14.5566 30.459 17.2519 29.1309 19.2344 27.7148C26.041 27.9004 31.1484 23.9941 31.1484 18.877C31.1484 13.9648 26.2266 10 20.0742 10C13.9219 10 9 13.9648 9 18.877C9 22.0801 11.0508 24.9219 14.1367 26.3477C13.6973 27.1973 12.877 28.3496 12.4375 28.9258C11.9199 29.6094 12.2324 30.459 13.2383 30.459ZM14.2637 28.8379C14.1855 28.8672 14.1562 28.8086 14.2051 28.7402C14.752 28.0664 15.5332 27.0508 15.8652 26.4258C16.1387 25.918 16.0703 25.4688 15.4453 25.1758C12.3789 23.75 10.6211 21.4746 10.6211 18.877C10.6211 14.8731 14.8105 11.6113 20.0742 11.6113C25.3477 11.6113 29.5371 14.8731 29.5371 18.877C29.5371 22.8711 25.3477 26.1328 20.0742 26.1328C19.8789 26.1328 19.5762 26.123 19.1855 26.1133C18.7754 26.1133 18.4629 26.2402 18.0918 26.5332C16.8906 27.4023 15.1523 28.4766 14.2637 28.8379ZM15.5234 20.3906C16.3047 20.3906 16.9394 19.7461 16.9394 18.9648C16.9394 18.1836 16.2949 17.5488 15.5234 17.5488C14.7324 17.5488 14.0977 18.1836 14.0977 18.9648C14.0977 19.7461 14.7324 20.3906 15.5234 20.3906ZM20.0742 20.3906C20.8555 20.3906 21.5 19.7461 21.5 18.9648C21.5 18.1836 20.8555 17.5488 20.0742 17.5488C19.293 17.5488 18.6484 18.1836 18.6484 18.9648C18.6484 19.7461 19.293 20.3906 20.0742 20.3906ZM24.6348 20.3906C25.416 20.3906 26.0508 19.7461 26.0508 18.9648C26.0508 18.1836 25.416 17.5488 24.6348 17.5488C23.8438 17.5488 23.209 18.1836 23.209 18.9648C23.209 19.7461 23.8438 20.3906 24.6348 20.3906Z" />
  </symbol>

  <symbol id="menu" fill="currentColor">
    <path
      d="M11 15C11 14.4477 11.4477 14 12 14H28C28.5523 14 29 14.4477 29 15C29 15.5523 28.5523 16 28 16H12C11.4477 16 11 15.5523 11 15Z" />
    <path
      d="M11 20C11 19.4477 11.4477 19 12 19H28C28.5523 19 29 19.4477 29 20C29 20.5523 28.5523 21 28 21H12C11.4477 21 11 20.5523 11 20Z" />
    <path
      d="M12 24C11.4477 24 11 24.4477 11 25C11 25.5523 11.4477 26 12 26H28C28.5523 26 29 25.5523 29 25C29 24.4477 28.5523 24 28 24H12Z" />
  </symbol>

  <symbol id="gear" fill="currentColor">
    <path d="M19.9893 30.5137C19.8532 30.5137 19.7207 30.5101 19.5918 30.503C19.4629 30.503 19.334 30.4958 19.2051 30.4815L18.6143 31.6094C18.5498 31.7383 18.4567 31.8314 18.335 31.8887C18.2132 31.9532 18.0771 31.9711 17.9268 31.9424C17.7835 31.9138 17.6654 31.8493 17.5723 31.7491C17.4863 31.6488 17.429 31.5235 17.4004 31.3731L17.207 30.1377C16.9564 30.0661 16.7093 29.9838 16.4658 29.8907C16.2295 29.8047 15.9896 29.7116 15.7461 29.6114L14.833 30.4278C14.7184 30.528 14.5931 30.5889 14.457 30.6104C14.321 30.6319 14.1777 30.6032 14.0273 30.5245C13.9056 30.4528 13.8197 30.3526 13.7695 30.2237C13.7266 30.0948 13.7194 29.9551 13.748 29.8047L13.9844 28.5909C13.7839 28.4405 13.5833 28.2829 13.3828 28.1182C13.1823 27.9535 12.9889 27.7816 12.8027 27.6026L11.6748 28.0752C11.5244 28.1397 11.3812 28.154 11.2451 28.1182C11.109 28.0824 10.9873 28 10.8799 27.8711C10.7939 27.7637 10.7438 27.642 10.7295 27.5059C10.7223 27.3627 10.7581 27.2266 10.8369 27.0977L11.4922 26.0342C11.349 25.8265 11.2129 25.6117 11.084 25.3897C10.9622 25.1605 10.8405 24.9278 10.7188 24.6914L9.47266 24.7344C9.32943 24.7487 9.19694 24.7201 9.0752 24.6485C8.95345 24.5697 8.87109 24.4551 8.82812 24.3047C8.77799 24.1615 8.77441 24.0254 8.81738 23.8965C8.86035 23.7676 8.93913 23.6566 9.05371 23.5635L10.0205 22.7901C9.95605 22.5394 9.90234 22.2888 9.85938 22.0381C9.81641 21.7803 9.78776 21.5153 9.77344 21.2432L8.58105 20.8672C8.43066 20.8243 8.31608 20.7491 8.2373 20.6416C8.15853 20.5271 8.11914 20.3946 8.11914 20.2442C8.11914 20.0866 8.15853 19.9541 8.2373 19.8467C8.31608 19.7393 8.43066 19.6641 8.58105 19.6211L9.77344 19.2452C9.78776 18.973 9.81641 18.7116 9.85938 18.461C9.90234 18.2032 9.95605 17.9489 10.0205 17.6983L9.05371 16.9141C8.93913 16.8282 8.86035 16.7207 8.81738 16.5918C8.77441 16.4629 8.77799 16.3304 8.82812 16.1944C8.87109 16.044 8.95345 15.933 9.0752 15.8614C9.19694 15.7826 9.32943 15.7504 9.47266 15.7647L10.7188 15.7969C10.8405 15.5606 10.9622 15.3314 11.084 15.1094C11.2129 14.8874 11.349 14.6654 11.4922 14.4434L10.8262 13.3799C10.7546 13.2582 10.7223 13.1293 10.7295 12.9932C10.7438 12.8571 10.7939 12.7354 10.8799 12.628C10.9873 12.4991 11.1055 12.4203 11.2344 12.3916C11.3704 12.3558 11.5137 12.3666 11.6641 12.4239L12.8027 12.875C12.9889 12.7103 13.1823 12.5456 13.3828 12.3809C13.5833 12.209 13.7839 12.0479 13.9844 11.8975L13.748 10.6944C13.7122 10.5368 13.7194 10.3936 13.7695 10.2647C13.8197 10.1358 13.9056 10.0391 14.0273 9.97465C14.1706 9.89587 14.3102 9.86723 14.4463 9.88871C14.5895 9.90303 14.7184 9.9639 14.833 10.0713L15.7461 10.8662C15.9896 10.7731 16.2295 10.6836 16.4658 10.5977C16.7093 10.5046 16.9564 10.4222 17.207 10.3506L17.4004 9.12601C17.429 8.97562 17.4863 8.8503 17.5723 8.75004C17.6654 8.64978 17.7835 8.58532 17.9268 8.55668C18.0771 8.52803 18.2132 8.54594 18.335 8.61039C18.4567 8.66768 18.5498 8.7572 18.6143 8.87894L19.2051 10.0069C19.3411 9.99255 19.4701 9.98539 19.5918 9.98539C19.7207 9.97823 19.8532 9.97465 19.9893 9.97465C20.1182 9.97465 20.2471 9.97823 20.376 9.98539C20.5049 9.98539 20.6338 9.99255 20.7627 10.0069L21.3643 8.87894C21.4215 8.7572 21.5111 8.66768 21.6328 8.61039C21.7617 8.54594 21.9014 8.52803 22.0518 8.55668C22.195 8.58532 22.3132 8.64978 22.4062 8.75004C22.5065 8.8503 22.5638 8.97562 22.5781 9.12601L22.7715 10.3614C23.015 10.4258 23.2585 10.5046 23.502 10.5977C23.7454 10.6836 23.9854 10.7731 24.2217 10.8662L25.1455 10.0606C25.2529 9.96032 25.3747 9.90303 25.5107 9.88871C25.654 9.86723 25.7972 9.89587 25.9404 9.97465C26.0622 10.0391 26.1481 10.1358 26.1982 10.2647C26.2555 10.3936 26.2663 10.5368 26.2305 10.6944L25.9834 11.8975C26.1839 12.0479 26.3844 12.209 26.585 12.3809C26.7926 12.5456 26.986 12.7103 27.165 12.875L28.3145 12.4239C28.4577 12.3666 28.5973 12.3558 28.7334 12.3916C28.8695 12.4203 28.9912 12.4991 29.0986 12.628C29.1846 12.7354 29.2311 12.8571 29.2383 12.9932C29.2526 13.1293 29.2204 13.2582 29.1416 13.3799L28.4863 14.4434C28.7656 14.8731 29.0234 15.3243 29.2598 15.7969L30.5059 15.7647C30.6491 15.7504 30.7816 15.7826 30.9033 15.8614C31.0251 15.933 31.1074 16.044 31.1504 16.1944C31.2005 16.3304 31.2005 16.4629 31.1504 16.5918C31.1074 16.7207 31.0322 16.8282 30.9248 16.9141L29.958 17.6983C30.0225 17.9489 30.0762 18.2032 30.1191 18.461C30.1621 18.7116 30.1943 18.973 30.2158 19.2452L31.3867 19.6211C31.7161 19.7286 31.8809 19.9362 31.8809 20.2442C31.8809 20.5521 31.7161 20.7598 31.3867 20.8672L30.2158 21.2432C30.1943 21.5153 30.1621 21.7803 30.1191 22.0381C30.0762 22.2888 30.0225 22.5394 29.958 22.7901L30.9248 23.5635C31.0322 23.6566 31.1074 23.7712 31.1504 23.9073C31.2005 24.0362 31.2005 24.1687 31.1504 24.3047C31.1074 24.4551 31.0251 24.5697 30.9033 24.6485C30.7816 24.7201 30.6491 24.7487 30.5059 24.7344L29.2598 24.6914C29.138 24.9278 29.0127 25.1605 28.8838 25.3897C28.762 25.6117 28.6296 25.8265 28.4863 26.0342L29.1416 27.0977C29.2204 27.2266 29.2526 27.3627 29.2383 27.5059C29.2311 27.642 29.1846 27.7637 29.0986 27.8711C28.9912 28 28.8695 28.0824 28.7334 28.1182C28.5973 28.154 28.4541 28.1397 28.3037 28.0752L27.165 27.6026C26.986 27.7816 26.7926 27.9535 26.585 28.1182C26.3844 28.2829 26.1839 28.4405 25.9834 28.5909L26.2305 29.8047C26.3164 30.1198 26.2197 30.3597 25.9404 30.5245C25.7972 30.6032 25.654 30.6319 25.5107 30.6104C25.3747 30.5889 25.2529 30.528 25.1455 30.4278L24.2217 29.6114C23.9854 29.7116 23.7454 29.8047 23.502 29.8907C23.2585 29.9838 23.015 30.0625 22.7715 30.127L22.5781 31.3731C22.5638 31.5235 22.5065 31.6488 22.4062 31.7491C22.3132 31.8493 22.195 31.9138 22.0518 31.9424C21.9014 31.9711 21.7653 31.9532 21.6436 31.8887C21.5218 31.8314 21.4287 31.7383 21.3643 31.6094L20.7627 30.4815C20.6338 30.4958 20.5049 30.503 20.376 30.503C20.2471 30.5101 20.1182 30.5137 19.9893 30.5137ZM19.9893 28.7842C21.1852 28.7842 22.2952 28.5658 23.3193 28.1289C24.3434 27.6921 25.2386 27.0834 26.0049 26.3028C26.7712 25.5222 27.3656 24.6162 27.7881 23.585C28.2178 22.5537 28.4326 21.4437 28.4326 20.2549C28.4326 19.0661 28.2178 17.9561 27.7881 16.9248C27.3656 15.8864 26.7712 14.9769 26.0049 14.1963C25.2386 13.4157 24.3434 12.807 23.3193 12.3702C22.2952 11.9261 21.1852 11.7041 19.9893 11.7041C18.8005 11.7041 17.694 11.9261 16.6699 12.3702C15.6458 12.807 14.7507 13.4157 13.9844 14.1963C13.2253 14.9769 12.6309 15.8864 12.2012 16.9248C11.7786 17.9561 11.5674 19.0661 11.5674 20.2549C11.5674 21.4437 11.7786 22.5537 12.2012 23.585C12.6309 24.6162 13.2253 25.5222 13.9844 26.3028C14.7507 27.0834 15.6458 27.6921 16.6699 28.1289C17.694 28.5658 18.8005 28.7842 19.9893 28.7842ZM18.1201 18.6006L14.4785 12.3809L15.7998 11.6397L19.3877 17.795L18.1201 18.6006ZM22.3848 20.9746V19.4922H29.5283V20.9746H22.3848ZM19.4092 22.7256L15.6816 28.8487L14.3711 28.0752L18.1523 21.9092L19.4092 22.7256ZM19.9678 23.0694C19.445 23.0694 18.9723 22.944 18.5498 22.6934C18.1273 22.4427 17.7907 22.1062 17.54 21.6836C17.2894 21.2539 17.1641 20.7813 17.1641 20.2657C17.1641 19.7429 17.2894 19.2702 17.54 18.8477C17.7907 18.4252 18.1273 18.0886 18.5498 17.8379C18.9723 17.5801 19.445 17.4512 19.9678 17.4512C20.4834 17.4512 20.9525 17.5801 21.375 17.8379C21.8047 18.0886 22.1449 18.4252 22.3955 18.8477C22.6533 19.2702 22.7822 19.7429 22.7822 20.2657C22.7822 20.7813 22.6533 21.2539 22.3955 21.6836C22.1449 22.1062 21.8047 22.4427 21.375 22.6934C20.9525 22.944 20.4834 23.0694 19.9678 23.0694ZM19.9678 21.458C20.3115 21.458 20.598 21.347 20.8271 21.125C21.0635 20.8959 21.1816 20.6094 21.1816 20.2657C21.1816 19.9219 21.0635 19.6355 20.8271 19.4063C20.598 19.17 20.3115 19.0518 19.9678 19.0518C19.6312 19.0518 19.3447 19.17 19.1084 19.4063C18.8792 19.6355 18.7646 19.9219 18.7646 20.2657C18.7646 20.6094 18.8792 20.8959 19.1084 21.125C19.3447 21.347 19.6312 21.458 19.9678 21.458Z"/>
  </symbol>

  <symbol id="backward" fill="currentColor">
    <path
      d="M11 19.5C11 19.7474 11.1066 19.9749 11.3005 20.1629L17.7367 26.7229C17.9305 26.9109 18.1341 27 18.3667 27C18.8417 27 19.2197 26.6438 19.2197 26.149C19.2197 25.9116 19.1325 25.6741 18.9774 25.5257L16.8061 23.2697L12.9677 19.6979L12.7641 20.1827L15.8853 20.3806H28.147C28.651 20.3806 29 20.0145 29 19.5C29 18.9855 28.651 18.6194 28.147 18.6194H15.8853L12.7641 18.8173L12.9677 19.312L16.8061 15.7302L18.9774 13.4743C19.1325 13.316 19.2197 13.0884 19.2197 12.8509C19.2197 12.3562 18.8417 12 18.3667 12C18.1341 12 17.9305 12.0792 17.7173 12.2968L11.3005 18.8371C11.1066 19.0251 11 19.2526 11 19.5Z" />
  </symbol>

  <symbol id="dots" fill="currentColor">
    <path d="M22 13C22 14.1046 21.1046 15 20 15C18.8954 15 18 14.1046 18 13C18 11.8954 18.8954 11 20 11C21.1046 11 22 11.8954 22 13Z"/>
    <path d="M22 20C22 21.1046 21.1046 22 20 22C18.8954 22 18 21.1046 18 20C18 18.8954 18.8954 18 20 18C21.1046 18 22 18.8954 22 20Z"/>
    <path d="M22 27C22 28.1046 21.1046 29 20 29C18.8954 29 18 28.1046 18 27C18 25.8954 18.8954 25 20 25C21.1046 25 22 25.8954 22 27Z"/>
  </symbol>

  <symbol id="paperclip" fill="currentColor">
    <path fill-rule="evenodd" clip-rule="evenodd" d="M23.0581 10.1481C24.346 9.88104 26.2331 9.8361 27.7091 11.2356C28.9771 12.4378 29.234 13.8804 29.1737 15.0075C29.0963 16.4563 28.1578 17.6203 27.2247 18.5354L21.4453 24.2041C20.8157 24.8217 20.0498 25.4868 19.0613 25.7264C18.2617 25.9201 17.1248 25.974 16.2617 25.1273C15.3989 24.281 15.4535 23.1662 15.6508 22.382C15.895 21.4116 16.5736 20.66 17.2036 20.042L21.2191 16.1037C21.3951 15.9311 21.6804 15.9311 21.8564 16.1038C22.0324 16.2764 22.0323 16.5563 21.8563 16.7289L17.8409 20.6672C17.2198 21.2763 16.7056 21.8793 16.5258 22.5938C16.3564 23.2672 16.3711 23.9844 16.899 24.5022C17.427 25.0202 18.1585 25.0345 18.8451 24.8681C19.5731 24.6917 20.1874 24.1877 20.8081 23.5789L26.5875 17.9102C27.4942 17.0209 28.2149 16.0608 28.2737 14.9611C28.3249 14.0048 28.1088 12.8442 27.0828 11.8713C25.9245 10.7731 24.414 10.7706 23.2445 11.0131C22.2689 11.2153 21.4312 11.8411 20.65 12.6074L13.6336 19.4904C12.831 20.2777 12.1841 21.1259 12.0043 22.1119C11.7361 23.5825 11.8366 25.7926 14.1535 27.5602C16.7944 29.5749 19.204 29.204 20.4407 28.7906C21.0044 28.6022 21.4972 28.2261 21.9932 27.772L27.9897 22.2818C28.1717 22.1153 28.4568 22.1249 28.6266 22.3034C28.7964 22.4819 28.7866 22.7616 28.6047 22.9282L22.6081 28.4183C22.0892 28.8934 21.4818 29.3766 20.7314 29.6275C19.2983 30.1065 16.5477 30.5067 13.6002 28.2581C10.9301 26.221 10.8129 23.6245 11.1171 21.9563C11.3465 20.6983 12.1556 19.69 12.9963 18.8653L20.0127 11.9822C20.8302 11.1803 21.8217 10.4044 23.0581 10.1481Z"/>
  </symbol>

  <symbol id="paperplane" fill="currentColor">
    <path d="M10.3745 28.6391C10.8716 29.1363 11.6519 29.0603 12.5704 28.6529L28.9084 21.3608C29.3503 21.1675 29.7025 20.9534 29.9373 20.7187C30.3862 20.2698 30.3862 19.7174 29.9373 19.2685C29.7025 19.0338 29.3504 18.8197 28.9084 18.6264L12.4806 11.2998C11.6796 10.9407 10.8786 10.844 10.3745 11.3481C9.73914 11.9834 10.0085 12.6808 10.4711 13.544L13.0675 18.4054C13.3714 18.9854 13.6338 19.2202 14.2069 19.2409L28.8601 19.7381C29.0327 19.745 29.1224 19.8624 29.1294 19.9936C29.1294 20.1317 29.0327 20.2422 28.86 20.2491L14.2069 20.8015C13.6545 20.8153 13.399 21.0294 13.0676 21.6232L10.5195 26.3673C10.0292 27.2718 9.73228 27.9969 10.3745 28.6391Z"/>
  </symbol>

</svg>
