<svg width="64" height="64" viewBox="0 0 64 64" fill="none" xmlns="http://www.w3.org/2000/svg">
<g clip-path="url(#clip0_44226_1462)">
<circle cx="32" cy="32" r="32" fill="#3A90DF"/>
<path d="M15.4656 50.4299C16.5262 51.4905 18.1908 51.3284 20.1502 50.4593L55.0045 34.9029C55.9474 34.4904 56.6987 34.0338 57.1996 33.533C58.1571 32.5754 58.1572 31.3969 57.1996 30.4394C56.6988 29.9385 55.9474 29.4819 55.0047 29.0694L19.9586 13.4393C18.2498 12.6733 16.5409 12.467 15.4655 13.5424C14.1102 14.8978 14.6848 16.3856 15.6718 18.227L21.2107 28.598C21.8589 29.8354 22.4188 30.3362 23.6415 30.3804L54.9015 31.4411C55.2698 31.4559 55.4612 31.7062 55.476 31.9861C55.4761 32.2808 55.2697 32.5164 54.9014 32.5312L23.6415 33.7097C22.463 33.7391 21.9178 34.1959 21.2109 35.4627L15.775 45.5833C14.729 47.513 14.0956 49.0599 15.4656 50.4299Z" fill="white"/>
</g>
<defs>
<clipPath id="clip0_44226_1462">
<rect width="64" height="64" fill="white"/>
</clipPath>
</defs>
</svg>
