<svg width="40" height="40" viewBox="0 0 40 40" fill="none" xmlns="http://www.w3.org/2000/svg">
<path d="M13.2383 30.459C14.5566 30.459 17.2519 29.1309 19.2344 27.7148C26.041 27.9004 31.1484 23.9941 31.1484 18.877C31.1484 13.9648 26.2266 10 20.0742 10C13.9219 10 9 13.9648 9 18.877C9 22.0801 11.0508 24.9219 14.1367 26.3477C13.6973 27.1973 12.877 28.3496 12.4375 28.9258C11.9199 29.6094 12.2324 30.459 13.2383 30.459ZM14.2637 28.8379C14.1855 28.8672 14.1562 28.8086 14.2051 28.7402C14.752 28.0664 15.5332 27.0508 15.8652 26.4258C16.1387 25.918 16.0703 25.4688 15.4453 25.1758C12.3789 23.75 10.6211 21.4746 10.6211 18.877C10.6211 14.8731 14.8105 11.6113 20.0742 11.6113C25.3477 11.6113 29.5371 14.8731 29.5371 18.877C29.5371 22.8711 25.3477 26.1328 20.0742 26.1328C19.8789 26.1328 19.5762 26.123 19.1855 26.1133C18.7754 26.1133 18.4629 26.2402 18.0918 26.5332C16.8906 27.4023 15.1523 28.4766 14.2637 28.8379ZM15.5234 20.3906C16.3047 20.3906 16.9394 19.7461 16.9394 18.9648C16.9394 18.1836 16.2949 17.5488 15.5234 17.5488C14.7324 17.5488 14.0977 18.1836 14.0977 18.9648C14.0977 19.7461 14.7324 20.3906 15.5234 20.3906ZM20.0742 20.3906C20.8555 20.3906 21.5 19.7461 21.5 18.9648C21.5 18.1836 20.8555 17.5488 20.0742 17.5488C19.293 17.5488 18.6484 18.1836 18.6484 18.9648C18.6484 19.7461 19.293 20.3906 20.0742 20.3906ZM24.6348 20.3906C25.416 20.3906 26.0508 19.7461 26.0508 18.9648C26.0508 18.1836 25.416 17.5488 24.6348 17.5488C23.8438 17.5488 23.209 18.1836 23.209 18.9648C23.209 19.7461 23.8438 20.3906 24.6348 20.3906Z" fill="#7A7A7A"/>
</svg>
