<svg xmlns="http://www.w3.org/2000/svg">

<symbol id="new-contact" fill="currentColor">
  <path fill-rule="evenodd" clip-rule="evenodd" d="M5.93007 18.7758C5.93007 18.7758 12.4557 18.7758 13.1027 18.7758C13.5123 18.7758 13.6728 17.7725 12.9419 17.7725C12.3039 17.7725 5.65307 17.7725 5.65307 17.7725C5.44458 17.7725 5.29863 17.7436 5.21523 17.686C5.13779 17.6341 5.09907 17.539 5.09907 17.4006C5.09907 16.9854 5.24502 16.5299 5.53691 16.034C5.83476 15.5382 6.26366 15.0625 6.82362 14.6069C7.38358 14.1514 8.0746 13.7795 8.89667 13.4912C9.71873 13.1972 10.654 13.0501 11.7024 13.0501C12.4173 13.0501 13.0815 13.128 13.695 13.2837C14.3086 13.4336 14.9261 13.6203 15.9535 14.0751C16.9809 14.5298 17.1027 13.6488 16.507 13.3086C15.9113 12.9684 14.8686 12.537 14.1239 12.3409C13.3793 12.1391 12.5721 12.0382 11.7024 12.0382C10.5051 12.0382 9.4328 12.2141 8.48563 12.5658C7.53847 12.9175 6.73129 13.373 6.06411 13.9323C5.39692 14.4859 4.88462 15.0798 4.5272 15.714C4.17573 16.3425 4 16.9393 4 17.5044C4 18.352 4.64336 18.7758 5.93007 18.7758ZM9.79022 10.3257C10.3621 10.6774 10.9935 10.8533 11.6845 10.8533C12.3815 10.8533 13.013 10.6774 13.5789 10.3257C14.1448 9.9682 14.5945 9.48963 14.9281 8.88996C15.2677 8.2903 15.4375 7.62433 15.4375 6.89205C15.4434 6.17706 15.2766 5.52551 14.9371 4.93737C14.5975 4.34924 14.1418 3.87931 13.5699 3.52759C13.004 3.17586 12.3756 3 11.6845 3C10.9995 3 10.371 3.17298 9.79915 3.51894C9.23324 3.8649 8.7805 4.33194 8.44095 4.92008C8.1014 5.50821 7.93163 6.15976 7.93163 6.87475C7.93163 7.6128 8.09842 8.28453 8.43202 8.88996C8.77157 9.48963 9.2243 9.9682 9.79022 10.3257ZM13.0159 9.4608C12.6168 9.72027 12.173 9.85 11.6845 9.85C11.202 9.85 10.7582 9.71738 10.3532 9.45215C9.95403 9.18691 9.63533 8.82942 9.39705 8.37967C9.15877 7.92992 9.03963 7.42828 9.03963 6.87475C9.03963 6.33851 9.15877 5.85417 9.39705 5.42172C9.63533 4.9835 9.95403 4.63754 10.3532 4.38384C10.7582 4.13013 11.202 4.00328 11.6845 4.00328C12.179 4.00328 12.6258 4.13302 13.0249 4.39249C13.43 4.64619 13.7516 4.99215 13.9899 5.43037C14.2282 5.86858 14.3444 6.35581 14.3384 6.89205C14.3384 7.44558 14.2193 7.94722 13.981 8.39697C13.7427 8.84095 13.421 9.19556 13.0159 9.4608Z"/>
  <path d="M17.9063 21C18.0552 21 18.1714 20.9568 18.2548 20.8703C18.3441 20.7838 18.3888 20.6742 18.3888 20.5416V18.734H20.2474C20.3844 18.734 20.4976 18.6936 20.5869 18.6129C20.6763 18.5322 20.721 18.4197 20.721 18.2756C20.721 18.1314 20.6763 18.019 20.5869 17.9383C20.4976 17.8575 20.3844 17.8172 20.2474 17.8172H18.3888V16.0095C18.3888 15.8769 18.3441 15.7674 18.2548 15.6809C18.1714 15.5944 18.0552 15.5511 17.9063 15.5511C17.7633 15.5511 17.6472 15.5944 17.5578 15.6809C17.4744 15.7674 17.4327 15.8769 17.4327 16.0095V17.8172H15.5652C15.4282 17.8172 15.315 17.8575 15.2256 17.9383C15.1363 18.019 15.0916 18.1314 15.0916 18.2756C15.0916 18.4197 15.1363 18.5322 15.2256 18.6129C15.315 18.6936 15.4282 18.734 15.5652 18.734H17.4327V20.5416C17.4327 20.6742 17.4744 20.7838 17.5578 20.8703C17.6472 20.9568 17.7633 21 17.9063 21Z"/>
</symbol>

<symbol id="bucket" fill="currentColor">
  <path d="M9.23458 17.61C9.1126 17.61 9.01714 17.5766 8.94819 17.5098C8.87925 17.4429 8.84212 17.3556 8.83682 17.2476L8.5743 8.72063C8.5743 8.6127 8.60877 8.52532 8.67771 8.4585C8.75196 8.39169 8.84743 8.35828 8.9641 8.35828C9.07548 8.35828 9.16829 8.39169 9.24254 8.4585C9.31679 8.52018 9.35391 8.60242 9.35391 8.70522L9.62439 17.2476C9.62439 17.3504 9.58727 17.4378 9.51302 17.5098C9.44407 17.5766 9.35126 17.61 9.23458 17.61ZM11.6053 17.61C11.4886 17.61 11.3931 17.5766 11.3189 17.5098C11.2446 17.4378 11.2075 17.3504 11.2075 17.2476V8.72063C11.2075 8.6127 11.2446 8.52532 11.3189 8.4585C11.3931 8.39169 11.4886 8.35828 11.6053 8.35828C11.7272 8.35828 11.8254 8.39169 11.8996 8.4585C11.9739 8.52532 12.011 8.6127 12.011 8.72063V17.2476C12.011 17.3504 11.9739 17.4378 11.8996 17.5098C11.8254 17.5766 11.7272 17.61 11.6053 17.61ZM13.9839 17.6177C13.8619 17.6177 13.7665 17.5843 13.6975 17.5175C13.6286 17.4455 13.5941 17.3556 13.5941 17.2476L13.8566 8.71293C13.8619 8.60499 13.899 8.52018 13.968 8.4585C14.0422 8.39169 14.135 8.35828 14.2464 8.35828C14.3684 8.35828 14.4639 8.39169 14.5328 8.4585C14.6071 8.52532 14.6415 8.6127 14.6362 8.72063L14.3737 17.2553C14.3737 17.3633 14.3366 17.4506 14.2623 17.5175C14.1934 17.5843 14.1006 17.6177 13.9839 17.6177ZM8.20835 6.34603V4.6576C8.20835 4.14361 8.37011 3.74014 8.69362 3.44717C9.02244 3.14906 9.47059 3 10.0381 3H13.1565C13.7293 3 14.1775 3.14906 14.501 3.44717C14.8298 3.74014 14.9942 4.14361 14.9942 4.6576V6.34603H14.0237V4.71156C14.0237 4.45971 13.9415 4.25926 13.7771 4.1102C13.6126 3.96115 13.3899 3.88662 13.1088 3.88662H10.0938C9.81267 3.88662 9.58992 3.96115 9.42551 4.1102C9.2611 4.25926 9.1789 4.45971 9.1789 4.71156V6.34603H8.20835ZM4.46141 6.81633C4.33943 6.81633 4.2307 6.77264 4.13524 6.68526C4.04508 6.59788 4 6.49252 4 6.36916C4 6.2458 4.04508 6.14044 4.13524 6.05306C4.2307 5.96568 4.33943 5.922 4.46141 5.922H18.7571C18.8791 5.922 18.9851 5.96568 19.0753 6.05306C19.1654 6.1353 19.2105 6.24067 19.2105 6.36916C19.2105 6.48738 19.1654 6.59274 19.0753 6.68526C18.9904 6.77264 18.8844 6.81633 18.7571 6.81633H4.46141ZM8.00151 20C7.48707 20 7.06279 19.8458 6.72867 19.5374C6.39985 19.229 6.22218 18.8255 6.19566 18.327L5.59106 6.68526H6.55365L7.1503 18.2345C7.16621 18.476 7.26167 18.6791 7.43669 18.8435C7.6117 19.0132 7.82385 19.098 8.07311 19.098H15.1295C15.384 19.098 15.5988 19.0157 15.7738 18.8512C15.9489 18.6868 16.0417 18.4812 16.0523 18.2345L16.633 6.68526H17.6195L17.0228 18.327C17.0016 18.8204 16.8213 19.2213 16.4819 19.5297C16.1477 19.8432 15.7261 20 15.217 20H8.00151Z"/>
</symbol>

<symbol id="media" fill="currentColor">
  <path fill-rule="evenodd" clip-rule="evenodd" d="M5.8125 3C4.2592 3 3 4.2592 3 5.8125V18.1875C3 19.7408 4.2592 21 5.8125 21H18.1875C19.7408 21 21 19.7408 21 18.1875V5.8125C21 4.2592 19.7408 3 18.1875 3H5.8125ZM18.1875 4.35H5.8125C5.00478 4.35 4.35 5.00478 4.35 5.8125V17.3353L7.6112 13.0026C8.50171 11.6658 10.4658 11.6658 11.3563 13.0026L12.1282 14.0339L13.9519 10.875C14.8179 9.375 16.983 9.375 17.849 10.875L19.65 13.9944V5.8125C19.65 5.00478 18.9952 4.35 18.1875 4.35ZM19.65 16.6944L16.6799 11.55C16.3335 10.95 15.4675 10.95 15.1211 11.55L13.0082 15.2096L16.3316 19.65H18.1875C18.9952 19.65 19.65 18.9952 19.65 18.1875V16.6944ZM5.8125 19.65C5.36148 19.65 4.95815 19.4458 4.68987 19.1249L8.73472 13.751C9.09093 13.2163 9.87656 13.2163 10.2328 13.751L14.6479 19.65H5.8125Z"/>
</symbol>

<symbol id="file" fill="currentColor">
  <path d="M6.08287 21C5.05525 21 4.28287 20.7679 3.76575 20.3036C3.25525 19.8393 3 19.1399 3 18.2054V5.80357C3 4.875 3.25525 4.1756 3.76575 3.70536C4.28287 3.23512 5.05525 3 6.08287 3H12.0796C12.4508 3 12.7757 3.02381 13.0541 3.07143C13.3392 3.1131 13.6011 3.19643 13.8398 3.32143C14.0785 3.44048 14.3238 3.61607 14.5757 3.84821L20.0552 8.85714C20.3204 9.10119 20.5193 9.33333 20.6519 9.55357C20.7912 9.76786 20.884 10.006 20.9304 10.2679C20.9768 10.5298 21 10.8542 21 11.2411V18.2054C21 19.1339 20.7414 19.8304 20.2243 20.2946C19.7138 20.7649 18.9448 21 17.9171 21H6.08287ZM6.15249 19.5625H17.8376C18.3547 19.5625 18.7425 19.4435 19.0011 19.2054C19.2663 18.9673 19.3989 18.625 19.3989 18.1786V11.3036H13.7304C13.1072 11.3036 12.6398 11.1637 12.3282 10.8839C12.0166 10.6042 11.8608 10.1845 11.8608 9.625V4.4375H6.16243C5.6453 4.4375 5.25414 4.55952 4.98895 4.80357C4.73039 5.04762 4.60111 5.38988 4.60111 5.83036V18.1786C4.60111 18.625 4.73039 18.9673 4.98895 19.2054C5.25414 19.4435 5.64199 19.5625 6.15249 19.5625ZM13.9094 9.95536H19.0906L13.3624 4.71429V9.45536C13.3624 9.63393 13.4022 9.7619 13.4818 9.83929C13.568 9.91667 13.7105 9.95536 13.9094 9.95536Z"/>
</symbol>

<symbol id="paperclip" fill="currentColor">
  <path fill-rule="evenodd" clip-rule="evenodd" d="M15.0581 2.14807C16.346 1.88104 18.2331 1.8361 19.7091 3.23561C20.9771 4.43783 21.234 5.8804 21.1737 7.00746C21.0963 8.45631 20.1578 9.62026 19.2247 10.5354L13.4453 16.2041C12.8157 16.8217 12.0498 17.4868 11.0613 17.7264C10.2617 17.9201 9.12483 17.974 8.26171 17.1273C7.39889 16.281 7.45352 15.1662 7.65084 14.382C7.89499 13.4116 8.57356 12.66 9.20362 12.042L13.2191 8.10371C13.3951 7.9311 13.6804 7.93112 13.8564 8.10377C14.0324 8.27642 14.0323 8.55631 13.8563 8.72892L9.84085 12.6672C9.2198 13.2763 8.70563 13.8793 8.52585 14.5938C8.35641 15.2672 8.37115 15.9844 8.899 16.5022C9.42704 17.0202 10.1585 17.0345 10.8451 16.8681C11.5731 16.6917 12.1874 16.1877 12.8081 15.5789L18.5875 9.91022C19.4942 9.02091 20.2149 8.06082 20.2737 6.96114C20.3249 6.00477 20.1088 4.84419 19.0828 3.8713C17.9245 2.77314 16.414 2.77057 15.2445 3.01306C14.2689 3.21532 13.4312 3.84108 12.65 4.60736L5.63355 11.4904C4.83099 12.2777 4.18407 13.1259 4.00427 14.1119C3.73612 15.5825 3.83662 17.7926 6.15351 19.5602C8.79443 21.5749 11.204 21.204 12.4407 20.7906C13.0044 20.6022 13.4972 20.2261 13.9932 19.772L19.9897 14.2818C20.1717 14.1153 20.4568 14.1249 20.6266 14.3034C20.7964 14.4819 20.7866 14.7616 20.6047 14.9282L14.6081 20.4183C14.0892 20.8934 13.4818 21.3766 12.7314 21.6275C11.2983 22.1065 8.54768 22.5067 5.60021 20.2581C2.93011 18.221 2.8129 15.6245 3.11708 13.9563C3.34648 12.6983 4.15559 11.69 4.99625 10.8653L12.0127 3.98222C12.8302 3.18032 13.8217 2.40442 15.0581 2.14807Z"/>
</symbol>

<symbol id="paperplane" fill="currentColor">
  <path d="M2.37448 20.6391C2.87164 21.1363 3.65194 21.0603 4.5704 20.6529L20.9084 13.3608C21.3503 13.1675 21.7025 12.9534 21.9373 12.7187C22.3862 12.2698 22.3862 11.7174 21.9373 11.2685C21.7025 11.0338 21.3504 10.8197 20.9084 10.6264L4.4806 3.29977C3.67957 2.94069 2.87855 2.84402 2.37446 3.34811C1.73914 3.98343 2.00848 4.68085 2.47113 5.54401L5.06751 10.4054C5.37136 10.9854 5.63381 11.2202 6.20694 11.2409L20.8601 11.7381C21.0327 11.745 21.1224 11.8624 21.1294 11.9936C21.1294 12.1317 21.0327 12.2422 20.86 12.2491L6.20695 12.8015C5.65451 12.8153 5.39897 13.0294 5.06758 13.6232L2.51951 18.3673C2.0292 19.2718 1.73228 19.9969 2.37448 20.6391Z"/>
</symbol>

<symbol id="lock" fill="currentColor">
  <path d="M10.75 10.2206V11.1691H13.2353V10.2206C13.2353 9.36029 12.7353 8.78676 11.9926 8.78676C11.25 8.78676 10.75 9.36029 10.75 10.2206Z"/>
  <path fill-rule="evenodd" clip-rule="evenodd" d="M5.75735 12C5.75735 15.4706 8.5294 18.25 12 18.25C15.4706 18.25 18.25 15.4706 18.25 12C18.25 8.5294 15.4632 5.75 11.9926 5.75C8.52206 5.75 5.75735 8.5294 5.75735 12ZM10.0882 15.7059C9.58088 15.7059 9.33823 15.4485 9.33823 14.8971V11.9706C9.33823 11.4559 9.55146 11.2059 9.98529 11.1765V10.3015C9.98529 8.94852 10.7941 8.04411 11.9926 8.04411C13.1912 8.04411 14 8.94852 14 10.3015V11.1765C14.4338 11.2059 14.6471 11.4559 14.6471 11.9706V14.8971C14.6471 15.4485 14.4044 15.7059 13.8971 15.7059H10.0882Z"/>
  <path fill-rule="evenodd" clip-rule="evenodd" d="M7 2C4.23858 2 2 4.23858 2 7V17C2 19.7614 4.23858 22 7 22H17C19.7614 22 22 19.7614 22 17V7C22 4.23858 19.7614 2 17 2H7ZM19.5 12C19.5 16.0956 16.103 19.5 12 19.5C7.9044 19.5 4.5 16.0956 4.5 12C4.5 7.89706 7.89706 4.5 11.9926 4.5C16.0956 4.5 19.5 7.89706 19.5 12Z"/>
</svg>
</symbol>

<symbol id="profile" fill="currentColor">
  <path fill-rule="evenodd" clip-rule="evenodd" d="M5.75735 12C5.75735 15.4706 8.5294 18.25 12 18.25C15.4706 18.25 18.25 15.4706 18.25 12C18.25 8.5294 15.4632 5.75 11.9926 5.75C8.52206 5.75 5.75735 8.5294 5.75735 12ZM15.353 15.7279H8.63235C8.33823 15.7279 8.19852 15.5294 8.19852 15.2647C8.19852 14.4559 9.41176 12.3676 11.9926 12.3676C14.5735 12.3676 15.7867 14.4559 15.7867 15.2647C15.7867 15.5294 15.6471 15.7279 15.353 15.7279ZM13.8823 9.70587C13.8823 10.8823 13.0368 11.7794 11.9926 11.772C10.9485 11.7647 10.1029 10.8823 10.1029 9.70587C10.1029 8.60294 10.9485 7.69117 11.9926 7.69117C13.0368 7.69117 13.8823 8.60294 13.8823 9.70587Z"/>
  <path fill-rule="evenodd" clip-rule="evenodd" d="M7 2C4.23858 2 2 4.23858 2 7V17C2 19.7614 4.23858 22 7 22H17C19.7614 22 22 19.7614 22 17V7C22 4.23858 19.7614 2 17 2H7ZM19.5 12C19.5 16.0956 16.103 19.5 12 19.5C7.9044 19.5 4.5 16.0956 4.5 12C4.5 7.89706 7.89706 4.5 11.9926 4.5C16.0956 4.5 19.5 7.89706 19.5 12Z"/>
</symbol>

<symbol id="close" fill="currentColor">
  <path fill-rule="evenodd" clip-rule="evenodd" d="M5.75735 12C5.75735 15.4706 8.5294 18.25 12 18.25C15.4706 18.25 18.25 15.4706 18.25 12C18.25 8.5294 15.4632 5.75 11.9926 5.75C8.52206 5.75 5.75735 8.5294 5.75735 12ZM9.91176 14.9265C9.80147 15.0441 9.6544 15.1103 9.48528 15.1103C9.16176 15.1103 8.89705 14.8455 8.89705 14.5147C8.89705 14.3529 8.96323 14.2132 9.07352 14.1029L11.1618 12.0073L9.07352 9.91176C8.96323 9.80147 8.89705 9.66176 8.89705 9.49999C8.89705 9.17647 9.16176 8.91911 9.48528 8.91911C9.6544 8.91911 9.78675 8.97794 9.89705 9.09559L11.9926 11.1838L14.1103 9.08823C14.2353 8.96323 14.3603 8.90441 14.5147 8.90441C14.8382 8.90441 15.1029 9.16911 15.1029 9.49264C15.1029 9.6544 15.0515 9.77941 14.9265 9.9044L12.8309 12.0073L14.9191 14.0955C15.0367 14.2132 15.0956 14.3456 15.0956 14.5147C15.0956 14.8455 14.8309 15.1103 14.5073 15.1103C14.3382 15.1103 14.1985 15.0367 14.0882 14.9265L11.9926 12.8382L9.91176 14.9265Z"/>
  <path fill-rule="evenodd" clip-rule="evenodd" d="M7 2C4.23858 2 2 4.23858 2 7V17C2 19.7614 4.23858 22 7 22H17C19.7614 22 22 19.7614 22 17V7C22 4.23858 19.7614 2 17 2H7ZM19.5 12C19.5 16.0956 16.103 19.5 12 19.5C7.9044 19.5 4.5 16.0956 4.5 12C4.5 7.89706 7.89706 4.5 11.9926 4.5C16.0956 4.5 19.5 7.89706 19.5 12Z"/>
</symbol>

</svg>
