<svg width="16" height="16" viewBox="0 0 16 16" fill="none" xmlns="http://www.w3.org/2000/svg">
<path d="M2 6.85352C2 4.17739 4.19857 2 6.90072 2C9.60287 2 11.8014 4.17739 11.8014 6.85352C11.8014 7.96047 11.4268 8.97618 10.7943 9.79118L13.7973 12.7836C13.9263 12.9113 14 13.0877 14 13.2823C14 13.6898 13.7114 14 13.2938 14C13.0972 14 12.913 13.9331 12.7718 13.7932L9.75026 10.7947C8.94575 11.3664 7.96929 11.707 6.90072 11.707C4.19857 11.707 2 9.52965 2 6.85352ZM3.05015 6.85352C3.05015 8.95793 4.77584 10.667 6.90072 10.667C9.02559 10.667 10.7513 8.95793 10.7513 6.85352C10.7513 4.74911 9.02559 3.04004 6.90072 3.04004C4.77584 3.04004 3.05015 4.74911 3.05015 6.85352Z" fill="#7A7A7A"/>
</svg>
