<svg xmlns="http://www.w3.org/2000/svg">

  <symbol id="add-chat" fill="currentColor">
    <path
      d="M13.2383 30.459C14.5566 30.459 17.2519 29.1309 19.2344 27.7148C26.041 27.9004 31.1484 23.9941 31.1484 18.877C31.1484 13.9648 26.2266 10 20.0742 10C13.9219 10 9 13.9648 9 18.877C9 22.0801 11.0508 24.9219 14.1367 26.3477C13.6973 27.1973 12.877 28.3496 12.4375 28.9258C11.9199 29.6094 12.2324 30.459 13.2383 30.459ZM14.2637 28.8379C14.1855 28.8672 14.1562 28.8086 14.2051 28.7402C14.752 28.0664 15.5332 27.0508 15.8652 26.4258C16.1387 25.918 16.0703 25.4688 15.4453 25.1758C12.3789 23.75 10.6211 21.4746 10.6211 18.877C10.6211 14.8731 14.8105 11.6113 20.0742 11.6113C25.3477 11.6113 29.5371 14.8731 29.5371 18.877C29.5371 22.8711 25.3477 26.1328 20.0742 26.1328C19.8789 26.1328 19.5762 26.123 19.1855 26.1133C18.7754 26.1133 18.4629 26.2402 18.0918 26.5332C16.8906 27.4023 15.1523 28.4766 14.2637 28.8379ZM15.5234 20.3906C16.3047 20.3906 16.9394 19.7461 16.9394 18.9648C16.9394 18.1836 16.2949 17.5488 15.5234 17.5488C14.7324 17.5488 14.0977 18.1836 14.0977 18.9648C14.0977 19.7461 14.7324 20.3906 15.5234 20.3906ZM20.0742 20.3906C20.8555 20.3906 21.5 19.7461 21.5 18.9648C21.5 18.1836 20.8555 17.5488 20.0742 17.5488C19.293 17.5488 18.6484 18.1836 18.6484 18.9648C18.6484 19.7461 19.293 20.3906 20.0742 20.3906ZM24.6348 20.3906C25.416 20.3906 26.0508 19.7461 26.0508 18.9648C26.0508 18.1836 25.416 17.5488 24.6348 17.5488C23.8438 17.5488 23.209 18.1836 23.209 18.9648C23.209 19.7461 23.8438 20.3906 24.6348 20.3906Z" />
  </symbol>

  <symbol id="menu" fill="currentColor">
    <path
      d="M11 15C11 14.4477 11.4477 14 12 14H28C28.5523 14 29 14.4477 29 15C29 15.5523 28.5523 16 28 16H12C11.4477 16 11 15.5523 11 15Z" />
    <path
      d="M11 20C11 19.4477 11.4477 19 12 19H28C28.5523 19 29 19.4477 29 20C29 20.5523 28.5523 21 28 21H12C11.4477 21 11 20.5523 11 20Z" />
    <path
      d="M12 24C11.4477 24 11 24.4477 11 25C11 25.5523 11.4477 26 12 26H28C28.5523 26 29 25.5523 29 25C29 24.4477 28.5523 24 28 24H12Z" />
  </symbol>

  <symbol id="backward" fill="currentColor">
    <path
      d="M11 19.5C11 19.7474 11.1066 19.9749 11.3005 20.1629L17.7367 26.7229C17.9305 26.9109 18.1341 27 18.3667 27C18.8417 27 19.2197 26.6438 19.2197 26.149C19.2197 25.9116 19.1325 25.6741 18.9774 25.5257L16.8061 23.2697L12.9677 19.6979L12.7641 20.1827L15.8853 20.3806H28.147C28.651 20.3806 29 20.0145 29 19.5C29 18.9855 28.651 18.6194 28.147 18.6194H15.8853L12.7641 18.8173L12.9677 19.312L16.8061 15.7302L18.9774 13.4743C19.1325 13.316 19.2197 13.0884 19.2197 12.8509C19.2197 12.3562 18.8417 12 18.3667 12C18.1341 12 17.9305 12.0792 17.7173 12.2968L11.3005 18.8371C11.1066 19.0251 11 19.2526 11 19.5Z" />
  </symbol>

  <symbol id="dots" fill="currentColor">
    <path d="M22 13C22 14.1046 21.1046 15 20 15C18.8954 15 18 14.1046 18 13C18 11.8954 18.8954 11 20 11C21.1046 11 22 11.8954 22 13Z"/>
    <path d="M22 20C22 21.1046 21.1046 22 20 22C18.8954 22 18 21.1046 18 20C18 18.8954 18.8954 18 20 18C21.1046 18 22 18.8954 22 20Z"/>
    <path d="M22 27C22 28.1046 21.1046 29 20 29C18.8954 29 18 28.1046 18 27C18 25.8954 18.8954 25 20 25C21.1046 25 22 25.8954 22 27Z"/>
  </symbol>

  <symbol id="paperclip" fill="currentColor">
    <path fill-rule="evenodd" clip-rule="evenodd" d="M23.0581 10.1481C24.346 9.88104 26.2331 9.8361 27.7091 11.2356C28.9771 12.4378 29.234 13.8804 29.1737 15.0075C29.0963 16.4563 28.1578 17.6203 27.2247 18.5354L21.4453 24.2041C20.8157 24.8217 20.0498 25.4868 19.0613 25.7264C18.2617 25.9201 17.1248 25.974 16.2617 25.1273C15.3989 24.281 15.4535 23.1662 15.6508 22.382C15.895 21.4116 16.5736 20.66 17.2036 20.042L21.2191 16.1037C21.3951 15.9311 21.6804 15.9311 21.8564 16.1038C22.0324 16.2764 22.0323 16.5563 21.8563 16.7289L17.8409 20.6672C17.2198 21.2763 16.7056 21.8793 16.5258 22.5938C16.3564 23.2672 16.3711 23.9844 16.899 24.5022C17.427 25.0202 18.1585 25.0345 18.8451 24.8681C19.5731 24.6917 20.1874 24.1877 20.8081 23.5789L26.5875 17.9102C27.4942 17.0209 28.2149 16.0608 28.2737 14.9611C28.3249 14.0048 28.1088 12.8442 27.0828 11.8713C25.9245 10.7731 24.414 10.7706 23.2445 11.0131C22.2689 11.2153 21.4312 11.8411 20.65 12.6074L13.6336 19.4904C12.831 20.2777 12.1841 21.1259 12.0043 22.1119C11.7361 23.5825 11.8366 25.7926 14.1535 27.5602C16.7944 29.5749 19.204 29.204 20.4407 28.7906C21.0044 28.6022 21.4972 28.2261 21.9932 27.772L27.9897 22.2818C28.1717 22.1153 28.4568 22.1249 28.6266 22.3034C28.7964 22.4819 28.7866 22.7616 28.6047 22.9282L22.6081 28.4183C22.0892 28.8934 21.4818 29.3766 20.7314 29.6275C19.2983 30.1065 16.5477 30.5067 13.6002 28.2581C10.9301 26.221 10.8129 23.6245 11.1171 21.9563C11.3465 20.6983 12.1556 19.69 12.9963 18.8653L20.0127 11.9822C20.8302 11.1803 21.8217 10.4044 23.0581 10.1481Z"/>
  </symbol>

  <symbol id="paperplane" fill="currentColor">
    <path d="M10.3745 28.6391C10.8716 29.1363 11.6519 29.0603 12.5704 28.6529L28.9084 21.3608C29.3503 21.1675 29.7025 20.9534 29.9373 20.7187C30.3862 20.2698 30.3862 19.7174 29.9373 19.2685C29.7025 19.0338 29.3504 18.8197 28.9084 18.6264L12.4806 11.2998C11.6796 10.9407 10.8786 10.844 10.3745 11.3481C9.73914 11.9834 10.0085 12.6808 10.4711 13.544L13.0675 18.4054C13.3714 18.9854 13.6338 19.2202 14.2069 19.2409L28.8601 19.7381C29.0327 19.745 29.1224 19.8624 29.1294 19.9936C29.1294 20.1317 29.0327 20.2422 28.86 20.2491L14.2069 20.8015C13.6545 20.8153 13.399 21.0294 13.0676 21.6232L10.5195 26.3673C10.0292 27.2718 9.73228 27.9969 10.3745 28.6391Z"/>
  </symbol>

</svg>
