<svg xmlns="http://www.w3.org/2000/svg">

<symbol id="paperclip" fill="currentColor">
<path fill-rule="evenodd" clip-rule="evenodd" d="M15.5719 0.425296C17.001 0.123253 19.0948 0.0724238 20.7325 1.65541C22.1394 3.01523 22.4245 4.64692 22.3576 5.92174C22.2716 7.56052 21.2303 8.87706 20.1951 9.91218L13.7825 16.324C13.0839 17.0226 12.2341 17.7749 11.1373 18.0459C10.2501 18.265 8.98869 18.326 8.03102 17.3683C7.07367 16.411 7.13429 15.15 7.35322 14.263C7.62412 13.1654 8.37703 12.3152 9.07611 11.6163L13.5315 7.1617C13.7268 6.96646 14.0434 6.96649 14.2386 7.16177C14.4338 7.35705 14.4338 7.67363 14.2385 7.86887L9.78315 12.3235C9.09406 13.0124 8.52357 13.6944 8.32409 14.5026C8.13608 15.2643 8.15244 16.0755 8.73812 16.6612C9.32401 17.2471 10.1356 17.2632 10.8975 17.075C11.7052 16.8755 12.3868 16.3055 13.0754 15.6169L19.488 9.20504C20.494 8.19914 21.2937 7.11319 21.359 5.86934C21.4157 4.78759 21.176 3.47486 20.0375 2.37443C18.7524 1.13231 17.0764 1.1294 15.7787 1.40368C14.6964 1.63246 13.7668 2.34025 12.9001 3.20699L5.11494 10.9924C4.22446 11.8829 3.50666 12.8423 3.30716 13.9576C3.00963 15.6209 3.12115 18.1208 5.69186 20.1201C8.62209 22.399 11.2956 21.9794 12.6678 21.5118C13.2932 21.2987 13.8401 20.8733 14.3904 20.3596L21.0439 14.1498C21.2457 13.9613 21.5621 13.9723 21.7505 14.1741C21.939 14.376 21.928 14.6924 21.7262 14.8808L15.0727 21.0907C14.4969 21.6281 13.823 22.1747 12.9903 22.4584C11.4003 23.0002 8.34831 23.4529 5.07794 20.9094C2.11533 18.6054 1.98527 15.6684 2.32278 13.7815C2.5773 12.3586 3.47506 11.2181 4.40782 10.2853L12.1929 2.4999C13.0999 1.59286 14.2001 0.715251 15.5719 0.425296Z"/>
</symbol>

</svg>
