<svg width="40" height="40" viewBox="0 0 40 40" fill="none" xmlns="http://www.w3.org/2000/svg">
<path d="M11 19.5C11 19.7474 11.1066 19.9749 11.3005 20.1629L17.7367 26.7229C17.9305 26.9109 18.1341 27 18.3667 27C18.8417 27 19.2197 26.6438 19.2197 26.149C19.2197 25.9116 19.1325 25.6741 18.9774 25.5257L16.8061 23.2697L12.9677 19.6979L12.7641 20.1827L15.8853 20.3806H28.147C28.651 20.3806 29 20.0145 29 19.5C29 18.9855 28.651 18.6194 28.147 18.6194H15.8853L12.7641 18.8173L12.9677 19.312L16.8061 15.7302L18.9774 13.4743C19.1325 13.316 19.2197 13.0884 19.2197 12.8509C19.2197 12.3562 18.8417 12 18.3667 12C18.1341 12 17.9305 12.0792 17.7173 12.2968L11.3005 18.8371C11.1066 19.0251 11 19.2526 11 19.5Z" fill="#7A7A7A"/>
</svg>
