<svg xmlns="http://www.w3.org/2000/svg" width="16" height="16" viewBox="0 0 16 16" fill="currentColor">
  <path d="M7.0016 12.0167C7.02442 12.0599 7.05401 12.1004 7.09037 12.1368C7.28563 12.3321 7.60221 12.3321 7.79748 12.1368L15.0807 4.85355C15.276 4.65829 15.276 4.34171 15.0807 4.14645C14.8855 3.95118 14.5689 3.95118 14.3736 4.14645L7.43679 11.0833L6.85355 10.5C6.65829 10.3048 6.34171 10.3048 6.14645 10.5C5.95118 10.6953 5.95118 11.0119 6.14645 11.2071L6.85355 11.9143C6.89765 11.9583 6.94792 11.9925 7.0016 12.0167Z"/>
  <path d="M3.06074 12.1045C3.07006 12.1156 3.07994 12.1264 3.09037 12.1368C3.28563 12.3321 3.60221 12.3321 3.79748 12.1368L11.0807 4.85355C11.276 4.65829 11.276 4.34171 11.0807 4.14645C10.8855 3.95118 10.5689 3.95118 10.3736 4.14645L3.43677 11.0833L0.853553 8.50008C0.658291 8.30482 0.341709 8.30482 0.146447 8.50008C-0.0488156 8.69535 -0.0488155 9.01193 0.146447 9.20719L2.97487 12.0356C3.00145 12.0622 3.03028 12.0852 3.06074 12.1045Z"/>
</svg>