<svg xmlns="http://www.w3.org/2000/svg">

  <symbol id="add-chat" fill="currentColor">
    <path
      d="M13.2383 30.459C14.5566 30.459 17.2519 29.1309 19.2344 27.7148C26.041 27.9004 31.1484 23.9941 31.1484 18.877C31.1484 13.9648 26.2266 10 20.0742 10C13.9219 10 9 13.9648 9 18.877C9 22.0801 11.0508 24.9219 14.1367 26.3477C13.6973 27.1973 12.877 28.3496 12.4375 28.9258C11.9199 29.6094 12.2324 30.459 13.2383 30.459ZM14.2637 28.8379C14.1855 28.8672 14.1562 28.8086 14.2051 28.7402C14.752 28.0664 15.5332 27.0508 15.8652 26.4258C16.1387 25.918 16.0703 25.4688 15.4453 25.1758C12.3789 23.75 10.6211 21.4746 10.6211 18.877C10.6211 14.8731 14.8105 11.6113 20.0742 11.6113C25.3477 11.6113 29.5371 14.8731 29.5371 18.877C29.5371 22.8711 25.3477 26.1328 20.0742 26.1328C19.8789 26.1328 19.5762 26.123 19.1855 26.1133C18.7754 26.1133 18.4629 26.2402 18.0918 26.5332C16.8906 27.4023 15.1523 28.4766 14.2637 28.8379ZM15.5234 20.3906C16.3047 20.3906 16.9394 19.7461 16.9394 18.9648C16.9394 18.1836 16.2949 17.5488 15.5234 17.5488C14.7324 17.5488 14.0977 18.1836 14.0977 18.9648C14.0977 19.7461 14.7324 20.3906 15.5234 20.3906ZM20.0742 20.3906C20.8555 20.3906 21.5 19.7461 21.5 18.9648C21.5 18.1836 20.8555 17.5488 20.0742 17.5488C19.293 17.5488 18.6484 18.1836 18.6484 18.9648C18.6484 19.7461 19.293 20.3906 20.0742 20.3906ZM24.6348 20.3906C25.416 20.3906 26.0508 19.7461 26.0508 18.9648C26.0508 18.1836 25.416 17.5488 24.6348 17.5488C23.8438 17.5488 23.209 18.1836 23.209 18.9648C23.209 19.7461 23.8438 20.3906 24.6348 20.3906Z" />
  </symbol>

  <symbol id="menu" fill="currentColor">
    <path
      d="M11 15C11 14.4477 11.4477 14 12 14H28C28.5523 14 29 14.4477 29 15C29 15.5523 28.5523 16 28 16H12C11.4477 16 11 15.5523 11 15Z" />
    <path
      d="M11 20C11 19.4477 11.4477 19 12 19H28C28.5523 19 29 19.4477 29 20C29 20.5523 28.5523 21 28 21H12C11.4477 21 11 20.5523 11 20Z" />
    <path
      d="M12 24C11.4477 24 11 24.4477 11 25C11 25.5523 11.4477 26 12 26H28C28.5523 26 29 25.5523 29 25C29 24.4477 28.5523 24 28 24H12Z" />
  </symbol>

  <symbol id="backward" fill="currentColor">
    <path
      d="M11 19.5C11 19.7474 11.1066 19.9749 11.3005 20.1629L17.7367 26.7229C17.9305 26.9109 18.1341 27 18.3667 27C18.8417 27 19.2197 26.6438 19.2197 26.149C19.2197 25.9116 19.1325 25.6741 18.9774 25.5257L16.8061 23.2697L12.9677 19.6979L12.7641 20.1827L15.8853 20.3806H28.147C28.651 20.3806 29 20.0145 29 19.5C29 18.9855 28.651 18.6194 28.147 18.6194H15.8853L12.7641 18.8173L12.9677 19.312L16.8061 15.7302L18.9774 13.4743C19.1325 13.316 19.2197 13.0884 19.2197 12.8509C19.2197 12.3562 18.8417 12 18.3667 12C18.1341 12 17.9305 12.0792 17.7173 12.2968L11.3005 18.8371C11.1066 19.0251 11 19.2526 11 19.5Z" />
  </symbol>

  <symbol id="dots" fill="currentColor">
    <path d="M22 13C22 14.1046 21.1046 15 20 15C18.8954 15 18 14.1046 18 13C18 11.8954 18.8954 11 20 11C21.1046 11 22 11.8954 22 13Z"/>
    <path d="M22 20C22 21.1046 21.1046 22 20 22C18.8954 22 18 21.1046 18 20C18 18.8954 18.8954 18 20 18C21.1046 18 22 18.8954 22 20Z"/>
    <path d="M22 27C22 28.1046 21.1046 29 20 29C18.8954 29 18 28.1046 18 27C18 25.8954 18.8954 25 20 25C21.1046 25 22 25.8954 22 27Z"/>
  </symbol>

</svg>