<svg width="16" height="16" viewBox="0 0 16 16" fill="none" xmlns="http://www.w3.org/2000/svg">
<path d="M8 15C4.17745 15 1 11.8225 1 8C1 4.17059 4.17059 1 7.99314 1C11.8225 1 15 4.17059 15 8C15 11.8225 11.8294 15 8 15ZM8 13.8333C11.2392 13.8333 13.8333 11.2392 13.8333 8C13.8333 4.76078 11.2324 2.16667 7.99314 2.16667C4.75392 2.16667 2.17353 4.76078 2.17353 8C2.17353 11.2392 4.76078 13.8333 8 13.8333ZM5.65294 10.9029C5.35098 10.9029 5.10392 10.6559 5.10392 10.3471C5.10392 10.1961 5.16569 10.0657 5.26863 9.96274L7.21765 8.00686L5.26863 6.05098C5.16569 5.94804 5.10392 5.81765 5.10392 5.66667C5.10392 5.36471 5.35098 5.12451 5.65294 5.12451C5.81078 5.12451 5.93431 5.17941 6.03725 5.28922L7.99314 7.23824L9.96961 5.28235C10.0863 5.16569 10.2029 5.11078 10.3471 5.11078C10.649 5.11078 10.8961 5.35784 10.8961 5.6598C10.8961 5.81078 10.848 5.92745 10.7314 6.04412L8.77549 8.00686L10.7245 9.95588C10.8343 10.0657 10.8892 10.1892 10.8892 10.3471C10.8892 10.6559 10.6422 10.9029 10.3402 10.9029C10.1824 10.9029 10.052 10.8343 9.94902 10.7314L7.99314 8.78235L6.05098 10.7314C5.94804 10.8412 5.81078 10.9029 5.65294 10.9029Z" fill="#7A7A7A"/>
</svg>
